<svg xmlns="http://www.w3.org/2000/svg" viewBox="44 50 1136 404" width="1136" height="404" role="img" aria-label="ReceptWise">
<title>ReceptWise</title>
<g transform="translate(24,28) scale(2.05)">
<g id="owl">
  <g stroke="#1E2A44" stroke-width="4.5" stroke-linejoin="round" stroke-linecap="round">
    <!-- ear tufts -->
    <path d="M52,66 L45,26 L82,46 Z" fill="#1F9384"/>
    <path d="M148,66 L155,26 L118,46 Z" fill="#1F9384"/>
    <!-- feet -->
    <g fill="#FF9F43" stroke-width="3">
      <ellipse cx="76" cy="189" rx="6" ry="5"/><ellipse cx="87" cy="190" rx="6" ry="5"/>
      <ellipse cx="113" cy="190" rx="6" ry="5"/><ellipse cx="124" cy="189" rx="6" ry="5"/>
    </g>
    <!-- body -->
    <path id="rw-body" d="M100,38 C150,38 168,72 168,114 C168,160 140,186 100,186 C60,186 32,160 32,114 C32,72 50,38 100,38 Z" fill="#2BB3A3"/>
  </g>
  <clipPath id="rw-bodyclip"><path d="M100,38 C150,38 168,72 168,114 C168,160 140,186 100,186 C60,186 32,160 32,114 C32,72 50,38 100,38 Z"/></clipPath>
  <g clip-path="url(#rw-bodyclip)">
    <ellipse cx="100" cy="156" rx="44" ry="36" fill="#FFF4E0"/>
    <g fill="none" stroke="#F2CF96" stroke-width="3" stroke-linecap="round">
      <path d="M84,144 q5,5 10,0"/><path d="M106,144 q5,5 10,0"/>
      <path d="M73,160 q5,5 10,0"/><path d="M95,160 q5,5 10,0"/><path d="M117,160 q5,5 10,0"/>
    </g>
  </g>
  <path d="M100,38 C150,38 168,72 168,114 C168,160 140,186 100,186 C60,186 32,160 32,114 C32,72 50,38 100,38 Z" fill="none" stroke="#1E2A44" stroke-width="4.5"/>
  <!-- face discs -->
  <g fill="#FFF4E0" stroke="#1E2A44" stroke-width="3.5">
    <circle cx="74" cy="98" r="26"/><circle cx="126" cy="98" r="26"/>
  </g>
  <!-- eyes -->
  <g style="transform-origin:77px 100px">
    <circle cx="77" cy="100" r="14" fill="#1E2A44"/><circle cx="72" cy="94" r="5" fill="#fff"/><circle cx="82" cy="105" r="2.2" fill="#fff"/>
  </g>
  <g style="transform-origin:123px 100px">
    <circle cx="123" cy="100" r="14" fill="#1E2A44"/><circle cx="118" cy="94" r="5" fill="#fff"/><circle cx="128" cy="105" r="2.2" fill="#fff"/>
  </g>
  <!-- cheeks -->
  <ellipse cx="54" cy="126" rx="8" ry="5" fill="#F4877D"/>
  <ellipse cx="146" cy="126" rx="8" ry="5" fill="#F4877D"/>
  <!-- beak -->
  <path d="M91,115 Q100,109 109,115 Q105,127 100,130 Q95,127 91,115 Z" fill="#FF9F43" stroke="#1E2A44" stroke-width="3" stroke-linejoin="round"/>
  <!-- wings -->
  <g stroke="#1E2A44" stroke-width="4.5" stroke-linejoin="round" fill="#1F9384">
    <path d="M40,116 C20,134 24,166 48,174 C54,152 55,132 40,116 Z"/>
    <g style="transform-origin:158px 118px">
      <path d="M160,116 C180,134 176,166 152,174 C146,152 145,132 160,116 Z"/>
    </g>
  </g>
  <!-- headset -->
  <g stroke="#1E2A44" stroke-linecap="round" stroke-linejoin="round">
    <path d="M33,98 C28,8 172,8 167,98" fill="none" stroke-width="10"/>
    <path d="M33,98 C28,8 172,8 167,98" fill="none" stroke="#FF6B6B" stroke-width="4"/>
    <path d="M33,114 C33,150 54,160 76,154" fill="none" stroke-width="4.5"/>
    <rect x="22" y="84" width="20" height="36" rx="9" fill="#FF6B6B" stroke-width="4"/>
    <rect x="158" y="84" width="20" height="36" rx="9" fill="#FF6B6B" stroke-width="4"/>
    <circle cx="80" cy="153" r="7.5" fill="#FF6B6B" stroke-width="3.5"/>
  </g>
</g></g>
<g transform="translate(500,318) scale(0.122)">
  <path fill="#1E2A44" d="M124.0 8.75Q87.5 8.75 71.625 -2.125Q55.75 -13.0 52.125 -30.875Q48.5 -48.75 48.5 -68.0V-614.5Q48.5 -633.5 52.375 -650.75Q56.25 -668.0 72.125 -679.0Q88 -690 125 -690H332.5Q374.25 -690.0 417.125 -674.875Q460.0 -659.75 496.0 -629.0Q532.0 -598.25 554.125 -552.125Q576.25 -506.0 576.25 -443.25Q576.25 -401.0 563.625 -361.75Q551.0 -322.5 525.875 -289.875Q500.75 -257.25 464.0 -233.625Q427.25 -210.0 378.75 -199.5H200.5V-67.0Q200.5 -47.75 196.75 -30.375Q193 -13 177.125 -2.125Q161.25 8.75 124.0 8.75ZM546.25 -11.0Q509.25 16.25 487.125 10.375Q465.0 4.5 440.75 -28.75L264.75 -280.75L436.25 -303.0L565.0 -118.25Q581.75 -93.75 586.125 -76.75Q590.5 -59.75 581.0 -44.75Q571.5 -29.75 546.25 -11.0ZM200.5 -350.25H340.0Q353.5 -350.25 368.5 -355.375Q383.5 -360.5 395.875 -371.875Q408.25 -383.25 416.25 -401.0Q424.25 -418.75 424.25 -444.25Q424.25 -472.75 412.375 -493.75Q400.5 -514.75 379.5 -526.25Q358.5 -537.75 330.5 -537.75H200.5Z M900.0 18.25Q830.0 18.25 779.625 -4.625Q729.25 -27.5 697.125 -65.375Q665.0 -103.25 649.25 -149.0Q633.5 -194.75 633.5 -240.75Q633.5 -316.25 667.5 -374.25Q701.5 -432.25 761.75 -465.375Q822.0 -498.5 899.75 -498.5Q957.75 -498.5 1000.25 -480.0Q1042.75 -461.5 1070.375 -432.25Q1098 -403 1111.625 -369.0Q1125.25 -335.0 1125.25 -304.25Q1125.25 -249.25 1098.625 -222.375Q1072.0 -195.5 1031.0 -195.5H792.5Q795.0 -170.25 811.5 -152.125Q828 -134 853.125 -124.0Q878.25 -114.0 905.75 -114.0Q929.5 -114.0 947.625 -116.625Q965.75 -119.25 979.0 -123.625Q992.25 -128.0 1002.875 -132.375Q1013.5 -136.75 1022.125 -140.0Q1030.75 -143.25 1038.75 -144.0Q1053.5 -144.5 1066.375 -135.375Q1079.25 -126.25 1089 -107Q1095.5 -95.5 1098.25 -85.5Q1101.0 -75.5 1101.0 -66.25Q1101.0 -41.5 1076.625 -22.625Q1052.25 -3.75 1007.5 7.25Q962.75 18.25 900.0 18.25ZM792.5 -278.0H951Q966.5 -278.0 974.125 -283.625Q981.75 -289.25 981.75 -304.5Q981.75 -322.5 971.0 -336.125Q960.25 -349.75 941.75 -357.375Q923.25 -365.0 898.5 -365.0Q868 -365 843.875 -352.875Q819.75 -340.75 806.375 -321.0Q793.0 -301.25 792.5 -278.0Z M1436.25 13.25Q1391.75 13.25 1346.25 -3.375Q1300.75 -20.0 1262.5 -52.25Q1224.25 -84.5 1201.125 -132.125Q1178.0 -179.75 1178 -242Q1178.0 -303.5 1201.125 -350.75Q1224.25 -398.0 1262.0 -430.0Q1299.75 -462.0 1345.125 -478.625Q1390.5 -495.25 1434.25 -495.25Q1471.0 -495.25 1500.625 -486.375Q1530.25 -477.5 1550.75 -465.75Q1571.25 -454.0 1580.25 -444.5Q1597.0 -432.25 1610.125 -419.125Q1623.25 -406.0 1622 -385Q1620.5 -373.5 1614.875 -362.375Q1609.25 -351.25 1599.5 -338.5Q1569.5 -297.25 1539.75 -300.75Q1525.25 -304.25 1512.75 -311.125Q1500.25 -318.0 1488.625 -325.25Q1477.0 -332.5 1464.125 -337.75Q1451.25 -343.0 1434.25 -343.0Q1405.25 -343.0 1382.0 -329.75Q1358.75 -316.5 1345.5 -293.75Q1332.25 -271.0 1332.25 -241.25Q1332.25 -211.75 1345.5 -188.625Q1358.75 -165.5 1381.5 -152.25Q1404.25 -139.0 1432.25 -139.0Q1448.5 -139.0 1461.375 -142.75Q1474.25 -146.5 1483.25 -152.0Q1492.25 -157.5 1496.75 -161.25Q1509.25 -169.0 1520.0 -175.375Q1530.75 -181.75 1542.5 -181.75Q1556.75 -181.75 1571.625 -171.25Q1586.5 -160.75 1604.5 -137.75Q1621.25 -117.25 1623.375 -99.0Q1625.5 -80.75 1614.625 -64.625Q1603.75 -48.5 1580.75 -33.75Q1573.25 -27.0 1552.75 -15.875Q1532.25 -4.75 1502.625 4.25Q1473.0 13.25 1436.25 13.25Z M1942.0 18.25Q1872.0 18.25 1821.625 -4.625Q1771.25 -27.5 1739.125 -65.375Q1707.0 -103.25 1691.25 -149.0Q1675.5 -194.75 1675.5 -240.75Q1675.5 -316.25 1709.5 -374.25Q1743.5 -432.25 1803.75 -465.375Q1864.0 -498.5 1941.75 -498.5Q1999.75 -498.5 2042.25 -480.0Q2084.75 -461.5 2112.375 -432.25Q2140 -403 2153.625 -369.0Q2167.25 -335.0 2167.25 -304.25Q2167.25 -249.25 2140.625 -222.375Q2114.0 -195.5 2073.0 -195.5H1834.5Q1837.0 -170.25 1853.5 -152.125Q1870 -134 1895.125 -124.0Q1920.25 -114.0 1947.75 -114.0Q1971.5 -114.0 1989.625 -116.625Q2007.75 -119.25 2021.0 -123.625Q2034.25 -128.0 2044.875 -132.375Q2055.5 -136.75 2064.125 -140.0Q2072.75 -143.25 2080.75 -144.0Q2095.5 -144.5 2108.375 -135.375Q2121.25 -126.25 2131 -107Q2137.5 -95.5 2140.25 -85.5Q2143.0 -75.5 2143.0 -66.25Q2143.0 -41.5 2118.625 -22.625Q2094.25 -3.75 2049.5 7.25Q2004.75 18.25 1942.0 18.25ZM1834.5 -278.0H1993Q2008.5 -278.0 2016.125 -283.625Q2023.75 -289.25 2023.75 -304.5Q2023.75 -322.5 2013.0 -336.125Q2002.25 -349.75 1983.75 -357.375Q1965.25 -365.0 1940.5 -365.0Q1910 -365 1885.875 -352.875Q1861.75 -340.75 1848.375 -321.0Q1835.0 -301.25 1834.5 -278.0Z M2492.5 0.0Q2443.5 0.0 2406.25 -19.25Q2369.0 -38.5 2344.25 -72.375Q2319.5 -106.25 2307.125 -150.25Q2294.75 -194.25 2295.5 -244.5Q2296.25 -294.0 2309.0 -338.625Q2321.75 -383.25 2346.5 -417.375Q2371.25 -451.5 2407.75 -471.125Q2444.25 -490.75 2492.5 -490.75Q2537.25 -490.75 2578.375 -470.75Q2619.5 -450.75 2651.75 -416.125Q2684.0 -381.5 2702.5 -336.625Q2721.0 -291.75 2721.0 -242.25Q2721.0 -191.5 2702.5 -147.25Q2684 -103 2652.125 -70.0Q2620.25 -37.0 2579.125 -18.5Q2538 0 2492.5 0.0ZM2300.0 216.25Q2264.25 216.25 2248.375 205.75Q2232.5 195.25 2229.125 178.625Q2225.75 162.0 2225.75 142.75V-416.25Q2225.75 -435.75 2229.0 -452.375Q2232.25 -469.0 2247.75 -479.875Q2263.25 -490.75 2299.0 -490.75Q2329.5 -490.75 2348.375 -482.0Q2367.25 -473.25 2374.75 -454.0V141.75Q2376.25 161.0 2372.25 178.125Q2368.25 195.25 2352.375 205.75Q2336.5 216.25 2300.0 216.25ZM2472.25 -140.75Q2499.75 -140.75 2522.0 -154.125Q2544.25 -167.5 2557.5 -190.5Q2570.75 -213.5 2570.75 -241.5Q2570.75 -270.5 2557.875 -293.25Q2545 -316 2522.75 -328.875Q2500.5 -341.75 2473.0 -341.75Q2445.75 -341.75 2423.5 -328.375Q2401.25 -315.0 2388.375 -292.625Q2375.5 -270.25 2375.5 -241.5Q2375.5 -213.5 2388.75 -190.5Q2402.0 -167.5 2423.875 -154.125Q2445.75 -140.75 2472.25 -140.75Z M3040.25 9.5Q2989.25 9.5 2952.375 -1.5Q2915.5 -12.5 2891.625 -35.5Q2867.75 -58.5 2856.375 -94.125Q2845.0 -129.75 2845.0 -178.5V-584.5Q2845.0 -604.75 2848.625 -621.0Q2852.25 -637.25 2868.0 -647.375Q2883.75 -657.5 2920.0 -657.5Q2955.75 -657.5 2971.625 -646.75Q2987.5 -636.0 2991.25 -618.75Q2995.0 -601.5 2995.0 -582.25V-184.75Q2995.0 -168.75 2997.5 -158.5Q3000.0 -148.25 3005.125 -143.0Q3010.25 -137.75 3019.0 -135.625Q3027.75 -133.5 3040.75 -133.5Q3063.25 -133.5 3080.25 -129.875Q3097.25 -126.25 3106.625 -112.0Q3116.0 -97.75 3116 -65Q3116.0 -28.5 3104.75 -12.75Q3093.5 3.0 3076.125 6.25Q3058.75 9.5 3040.25 9.5ZM2813.75 -483.0 2923.75 -482.5 3062.0 -486.75Q3081.25 -486.75 3098.25 -483.125Q3115.25 -479.5 3126.125 -463.75Q3137 -448 3137 -411Q3137.0 -376.75 3126.25 -360.875Q3115.5 -345.0 3098.625 -340.625Q3081.75 -336.25 3061.75 -336.25L2931.25 -339.0L2810.25 -338.5Q2780.75 -340.0 2769.5 -356.625Q2758.25 -373.25 2758.25 -411.75Q2758.25 -447.75 2772.0 -465.375Q2785.75 -483.0 2813.75 -483.0Z"/>
  <path fill="#2BB3A3" d="M3440.0 7.5Q3413.75 7.5 3398.875 -2.75Q3384 -13 3377.25 -25.75Q3370.5 -38.5 3368.5 -44.25L3180.5 -589.25Q3168.0 -630.5 3176.75 -651.0Q3185.5 -671.5 3228.5 -685.5Q3256.75 -694.75 3274.25 -693.875Q3291.75 -693.0 3303.5 -679.75Q3315.25 -666.5 3324.25 -638.5L3448.5 -268.25L3553.75 -634.0Q3556.75 -643.75 3563.25 -657.0Q3569.75 -670.25 3584.75 -680.125Q3599.75 -690.0 3627.25 -690.0Q3658.25 -690.0 3673.625 -679.0Q3689 -668 3695.125 -655.125Q3701.25 -642.25 3703.75 -634.5L3809.5 -266.0L3933.75 -638.0Q3943.0 -665.75 3954.375 -679.5Q3965.75 -693.25 3984.25 -695.0Q4002.75 -696.75 4031.0 -686.75Q4060.5 -676.25 4072.875 -664.25Q4085.25 -652.25 4085.625 -634.625Q4086 -617 4077.5 -589.25L3890.25 -44.0Q3888.25 -37.75 3881.75 -25.375Q3875.25 -13.0 3860.375 -2.75Q3845.5 7.5 3818.0 7.5Q3790.5 7.5 3774.875 -4.625Q3759.25 -16.75 3752.375 -30.5Q3745.5 -44.25 3744.0 -48.5L3629.0 -422.25L3514.0 -49.25Q3512.5 -43.5 3505.625 -29.75Q3498.75 -16.0 3483.5 -4.25Q3468.25 7.5 3440.0 7.5Z M4226.5 9.5Q4190.25 9.5 4174.375 -1.375Q4158.5 -12.25 4155.25 -29.625Q4152 -47 4152.0 -66.25V-415.25Q4152.0 -434.5 4155.625 -451.5Q4159.25 -468.5 4175.125 -479.25Q4191 -490 4227.5 -490.0Q4264 -490 4279.375 -479.125Q4294.75 -468.25 4298.375 -450.875Q4302.0 -433.5 4302.0 -413.25V-65.25Q4302 -46 4298.375 -28.625Q4294.75 -11.25 4279.25 -0.875Q4263.75 9.5 4226.5 9.5ZM4226.5 -562.75Q4189.25 -562.75 4173.0 -573.875Q4156.75 -585.0 4153.25 -603.0Q4149.75 -621.0 4149.75 -641.0Q4149.75 -661.75 4153.625 -679.125Q4157.5 -696.5 4173.875 -707.125Q4190.25 -717.75 4227.5 -717.75Q4264.75 -717.75 4280.625 -706.625Q4296.5 -695.5 4300.375 -677.625Q4304.25 -659.75 4304.25 -639.5Q4304.25 -619.75 4300.375 -601.875Q4296.5 -584.0 4280.625 -573.375Q4264.75 -562.75 4226.5 -562.75Z M4568.75 17.0Q4542 17 4510.25 11.0Q4478.5 5.0 4448.75 -6.5Q4419 -18 4398.75 -33.625Q4378.5 -49.25 4375.75 -69.25Q4374.0 -79.25 4376.625 -90.375Q4379.25 -101.5 4385.875 -114.25Q4392.5 -127.0 4403.25 -141.0Q4411.25 -151.5 4420.875 -154.75Q4430.5 -158.0 4444.25 -153.75Q4460.0 -151.25 4476.25 -143.5Q4492.5 -135.75 4509.25 -127.125Q4526.0 -118.5 4543.875 -112.125Q4561.75 -105.75 4581.0 -105.75Q4609.0 -105.75 4624.625 -114.125Q4640.25 -122.5 4640.25 -137.75Q4640.25 -148.5 4633.625 -155.875Q4627.0 -163.25 4615.375 -168.375Q4603.75 -173.5 4588.625 -177.625Q4573.5 -181.75 4556.125 -186.125Q4538.75 -190.5 4520.5 -196.25Q4496.25 -203.25 4472.875 -214.0Q4449.5 -224.75 4430.875 -242.25Q4412.25 -259.75 4401.0 -285.25Q4389.75 -310.75 4389.75 -348.25Q4389.75 -396.75 4412.625 -430.0Q4435.5 -463.25 4479.5 -480.75Q4523.5 -498.25 4586.75 -498.25Q4605.25 -498.25 4623.0 -495.875Q4640.75 -493.5 4658.25 -488.75Q4675.75 -484.0 4692.75 -476.75Q4709.75 -469.5 4726.5 -460.25Q4757.25 -445.5 4758.25 -421.875Q4759.25 -398.25 4740.75 -372.5Q4729.5 -355.75 4717.625 -348.25Q4705.75 -340.75 4693.25 -343.5Q4677.25 -347.5 4658.625 -356.625Q4640.0 -365.75 4619.625 -373.75Q4599.25 -381.75 4578.5 -381.75Q4562.25 -381.75 4550.125 -377.5Q4538.0 -373.25 4531.875 -365.5Q4525.75 -357.75 4525.75 -347.5Q4525.75 -335.0 4533.5 -327.25Q4541.25 -319.5 4554.125 -314.5Q4567.0 -309.5 4584.125 -305.75Q4601.25 -302.0 4620.75 -298.25Q4647.75 -293.25 4676.125 -284.5Q4704.5 -275.75 4728.125 -259.875Q4751.75 -244.0 4766.25 -216.75Q4780.75 -189.5 4780.75 -145.75Q4780.75 -67.0 4725.75 -25.0Q4670.75 17.0 4568.75 17.0Z M5095.0 18.25Q5025.0 18.25 4974.625 -4.625Q4924.25 -27.5 4892.125 -65.375Q4860.0 -103.25 4844.25 -149.0Q4828.5 -194.75 4828.5 -240.75Q4828.5 -316.25 4862.5 -374.25Q4896.5 -432.25 4956.75 -465.375Q5017.0 -498.5 5094.75 -498.5Q5152.75 -498.5 5195.25 -480.0Q5237.75 -461.5 5265.375 -432.25Q5293 -403 5306.625 -369.0Q5320.25 -335.0 5320.25 -304.25Q5320.25 -249.25 5293.625 -222.375Q5267.0 -195.5 5226.0 -195.5H4987.5Q4990.0 -170.25 5006.5 -152.125Q5023 -134 5048.125 -124.0Q5073.25 -114.0 5100.75 -114.0Q5124.5 -114.0 5142.625 -116.625Q5160.75 -119.25 5174.0 -123.625Q5187.25 -128.0 5197.875 -132.375Q5208.5 -136.75 5217.125 -140.0Q5225.75 -143.25 5233.75 -144.0Q5248.5 -144.5 5261.375 -135.375Q5274.25 -126.25 5284 -107Q5290.5 -95.5 5293.25 -85.5Q5296.0 -75.5 5296.0 -66.25Q5296.0 -41.5 5271.625 -22.625Q5247.25 -3.75 5202.5 7.25Q5157.75 18.25 5095.0 18.25ZM4987.5 -278.0H5146Q5161.5 -278.0 5169.125 -283.625Q5176.75 -289.25 5176.75 -304.5Q5176.75 -322.5 5166.0 -336.125Q5155.25 -349.75 5136.75 -357.375Q5118.25 -365.0 5093.5 -365.0Q5063 -365 5038.875 -352.875Q5014.75 -340.75 5001.375 -321.0Q4988.0 -301.25 4987.5 -278.0Z"/>
</g>
</svg>